<?xml version="1.0" encoding="UTF-8"?>
<svg xmlns="http://www.w3.org/2000/svg" width="1200" height="800" viewBox="0 0 1200 800" fill="none">
  <rect width="1200" height="800" fill="#0E0E0E"></rect>
  <g clip-path="url(#clip0_95_2)">
    <mask id="mask0_95_2" style="mask-type:luminance" maskUnits="userSpaceOnUse" x="95" y="329" width="994" height="142">
      <path d="M1089 329H95V471H1089V329Z" fill="white"></path>
    </mask>
    <g mask="url(#mask0_95_2)">
      <path d="M561.633 457.387C545.896 457.387 533.109 452.417 523.325 442.478C513.541 432.538 508.623 419.338 508.623 402.824V399.769C508.623 388.743 510.745 378.855 515.042 370.158C519.287 361.461 525.292 354.679 533.006 349.865C540.719 344.999 549.312 342.617 558.786 342.617C573.851 342.617 585.499 347.432 593.73 357.061C601.961 366.689 606.051 380.304 606.051 397.906V407.948H533.73C534.455 417.111 537.51 424.308 542.893 429.64C548.225 434.972 555.007 437.611 563.083 437.611C574.472 437.611 583.739 433.004 590.934 423.789L604.342 436.576C599.89 443.202 593.989 448.328 586.586 451.952C579.183 455.575 570.848 457.387 561.633 457.387ZM558.683 362.548C551.849 362.548 546.362 364.929 542.169 369.692C537.975 374.455 535.284 381.133 534.144 389.623H581.512V387.759C580.943 379.424 578.769 373.16 574.887 368.864C570.952 364.722 565.568 362.548 558.683 362.548Z" fill="white"></path>
      <path d="M683.296 367.359C680.034 366.79 676.669 366.531 673.149 366.531C661.76 366.531 654.098 370.88 650.112 379.628V455.365H625.263V344.633H649.025L649.646 357.006C655.651 347.377 663.986 342.562 674.598 342.562C678.119 342.562 681.069 343.028 683.399 344.012L683.296 367.359Z" fill="white"></path>
      <path d="M763.108 455.365C762.021 453.243 761.038 449.826 760.261 445.011C752.34 453.243 742.66 457.384 731.219 457.384C720.089 457.384 711.03 454.226 703.989 447.859C696.948 441.491 693.428 433.674 693.428 424.304C693.428 412.501 697.829 403.442 706.577 397.126C715.326 390.81 727.855 387.653 744.161 387.653H759.381V380.405C759.381 374.659 757.776 370.103 754.566 366.635C751.357 363.166 746.49 361.458 739.916 361.458C734.274 361.458 729.615 362.856 725.99 365.703C722.367 368.55 720.555 372.122 720.555 376.522H695.706C695.706 370.466 697.725 364.771 701.763 359.491C705.801 354.21 711.237 350.069 718.173 347.066C725.111 344.064 732.824 342.562 741.366 342.562C754.308 342.562 764.661 345.824 772.375 352.347C780.088 358.869 784.023 368.032 784.229 379.836V429.74C784.229 439.679 785.627 447.652 788.423 453.605V455.365H763.108ZM735.826 437.454C740.744 437.454 745.352 436.262 749.7 433.882C754.049 431.5 757.31 428.291 759.484 424.252V403.39H746.076C736.862 403.39 729.925 404.995 725.317 408.205C720.658 411.414 718.381 415.97 718.381 421.819C718.381 426.582 719.985 430.413 723.143 433.209C726.249 436.056 730.494 437.454 735.826 437.454Z" fill="white"></path>
      <path d="M872.403 425.287C872.403 420.835 870.591 417.47 866.915 415.141C863.24 412.811 857.235 410.792 848.745 408.98C840.307 407.22 833.215 404.942 827.572 402.25C815.147 396.245 808.935 387.548 808.935 376.159C808.935 366.634 812.973 358.61 820.997 352.242C829.021 345.823 839.271 342.613 851.696 342.613C864.948 342.613 875.613 345.875 883.792 352.449C891.92 358.972 896.006 367.514 896.006 377.919H871.16C871.16 373.156 869.4 369.17 865.828 366.012C862.256 362.855 857.597 361.25 851.696 361.25C846.26 361.25 841.808 362.492 838.339 365.029C834.871 367.566 833.163 370.93 833.163 375.175C833.163 379.006 834.767 381.957 837.977 384.08C841.186 386.202 847.658 388.325 857.441 390.499C867.174 392.673 874.836 395.21 880.426 398.16C885.964 401.111 890.105 404.683 892.803 408.876C895.493 413.018 896.835 418.091 896.835 424.045C896.835 433.984 892.693 442.06 884.465 448.22C876.233 454.381 865.414 457.487 852.006 457.487C842.946 457.487 834.871 455.83 827.778 452.569C820.686 449.307 815.147 444.804 811.212 439.057C807.278 433.311 805.26 427.151 805.26 420.524H829.384C829.746 426.374 831.92 430.929 836.01 434.087C840.099 437.245 845.535 438.85 852.265 438.85C858.788 438.85 863.809 437.607 867.226 435.123C870.695 432.586 872.403 429.325 872.403 425.287Z" fill="white"></path>
      <path d="M967.235 457.383C951.497 457.383 938.709 452.413 928.926 442.474C919.144 432.535 914.229 419.334 914.229 402.82V399.765C914.229 388.739 916.352 378.851 920.643 370.154C924.887 361.457 930.899 354.675 938.606 349.861C946.321 344.995 954.913 342.613 964.387 342.613C979.455 342.613 991.099 347.428 999.335 357.057C1007.56 366.685 1011.66 380.3 1011.66 397.902V407.944H939.332C940.058 417.107 943.111 424.304 948.499 429.636C953.832 434.968 960.608 437.607 968.686 437.607C980.078 437.607 989.34 433 996.534 423.785L1009.95 436.572C1005.5 443.199 999.595 448.324 992.187 451.948C984.788 455.571 976.449 457.383 967.235 457.383ZM964.285 362.544C957.453 362.544 951.962 364.925 947.773 369.688C943.576 374.451 940.886 381.129 939.75 389.619H987.115V387.755C986.547 379.42 984.37 373.156 980.488 368.86C976.552 364.718 971.172 362.544 964.285 362.544Z" fill="white"></path>
      <path d="M1088.9 367.359C1085.63 366.79 1082.27 366.531 1078.75 366.531C1067.36 366.531 1059.7 370.88 1055.71 379.628V455.365H1030.87V344.633H1054.63L1055.24 357.006C1061.25 347.377 1069.59 342.562 1080.2 342.562C1083.72 342.562 1086.67 343.028 1089 344.012L1088.9 367.359Z" fill="white"></path>
      <path d="M268.061 471H105.768C97.4335 471 92.2567 459.145 96.5535 449.878L149.409 335.73C151.324 331.537 154.844 329 158.623 329H268.113V471H268.061Z" fill="#EC2C40"></path>
      <path d="M286.698 329H449.042C457.377 329 462.554 340.855 458.257 350.121L405.402 464.27C403.486 468.464 399.966 471 396.187 471H286.698V329Z" fill="#00A9E5"></path>
    </g>
  </g>
  <defs>
    <clipPath id="clip0_95_2">
      <rect width="994" height="142" fill="white" transform="translate(95 329)"></rect>
    </clipPath>
  </defs>
</svg>
